#!OML:ASF E:/inclinewalkrobotboard/Project1/Captureday1/Session1/subject1.ASF
:FULLY-SPECIFIED
:DEGREES
313
root 0 0 0 -2.1142425622168948 -0.42929457795604864 0.5398427494965445
lowerback 10.09644941170253 -0.6626869949914713 -2.7919381236782725
upperback 0.25285670155673495 -1.1419451622935535 1.22334303176375
thorax -5.360148952933479 -0.49873738843252446 3.0053311703278736
lowerneck -14.562782463636513 -2.535602920078794 -1.5270069749018194
upperneck 17.192254558203086 -3.234157365346948 1.0186616531788428
head 7.933366952353834 -1.5775011861455361 0.24431743130064595
rclavicle -2.0355979370250617E-16 -1.0567728831704732E-16
rhumerus -20.024628558426457 -7.711566444550054 -67.78989338045517
rradius 59.33303605594601
rwrist -7.653106998858356
rhand -13.523068708406008 -7.738179695125249
rfingers 7.1250199999998705
rthumb 12.612812065945905 -37.00008119366319
lclavicle -7.522159991524489E-16 -3.699942278810269E-16
lhumerus -39.31071011783888 0.20305562610052383 83.26158831135716
lradius 37.924445824552194
lwrist 2.833414175556679
lhand -19.725020257313723 1.7365039067121142
lfingers 7.125019999999884
lthumb 6.512378066261638 31.258503213065865
rfemur -10.066203991032374 1.666977588356908 13.515084177088543
rtibia 29.379775502938124
rfoot -0.2366196829985865 -3.2201016540794063
rtoes 3.8743738243887913
lfemur 1.2884460809720544 -4.167208292552625 -20.793584952322142
ltibia 19.11262633621373
lfoot -18.044967350399162 4.040348015967734
ltoes -21.846805215749114
314
root 0 0 0 -2.2007785583834747 -0.308407957479232 0.809983812778309
lowerback 10.137769413134379 -0.7804267105014238 -3.0052232083115493
upperback 0.29103888371556946 -1.325329268791727 1.259276769841649
thorax -5.331638559182886 -0.5810173479778403 3.1883843425727054
lowerneck -14.809967509452125 -2.5288834785628773 -1.6257124388924435
upperneck 17.46326052314905 -3.194391214715706 0.9470728563011237
head 8.058225905687474 -1.5655443153448703 0.23420721249869336
rclavicle -1.9327505054066644E-16 -1.047288096662986E-16
rhumerus -19.96085141800723 -7.626418499068324 -67.70362705811563
rradius 59.60177289775646
rwrist -7.740005639594974
rhand -13.48286407766394 -8.003850777631442
rfingers 7.125019999999869
rthumb 12.651476748462626 -37.26086117670461
lclavicle -7.390764181805435E-16 -3.713743144428975E-16
lhumerus -39.351816028452184 0.1873603096024065 83.26711535621207
lradius 38.02291073421005
lwrist 2.819340228697669
lhand -19.66896802319645 1.5611290839273817
lfingers 7.125019999999882
lthumb 6.565855097733166 31.078710335159634
rfemur -10.410329620676032 1.6552909438562378 13.6784869159352
rtibia 30.097211791285275
rfoot -0.09600440517133135 -3.279377594348942
rtoes 4.073932011066577
lfemur 0.7148114151560483 -3.9516331348689215 -20.725038037809416
ltibia 20.484511442656007
lfoot -17.193829083316004 3.4204411877013676
ltoes -20.780116791715436
315
root 0 0 0 -2.253457084860518 -0.3001614907894643 0.8682745317282365
lowerback 10.163157082240897 -0.8147488104900344 -3.017787824303108
upperback 0.3139833510047782 -1.3737291861880392 1.2894979008287228
thorax -5.315645566591777 -0.601849191364389 3.233223120898441
lowerneck -14.985771223825807 -2.535401862946236 -1.6836014556575722
upperneck 17.669912321810855 -3.1852342831083362 0.8996944516301344
head 8.144461861683 -1.5654013882446436 0.22369316873663264
rclavicle -1.855636473705129E-16 -1.0210949876497686E-16
rhumerus -19.894054759540683 -7.547723895558565 -67.62216336973576
rradius 59.849950532531565
rwrist -7.8255392531045125
rhand -13.447501329859762 -8.242713563928582
rfingers 7.125019999999868
rthumb 12.685455117832309 -37.49390771198137
lclavicle -7.341947552090379E-16 -3.6826501077132145E-16
lhumerus -39.3297328502999 0.18015894186517972 83.26453073719922
lradius 38.006504226851675
lwrist 2.8310259487475795
lhand -19.68936282484197 1.6212585013201881
lfingers 7.125019999999882
lthumb 6.546887769982256 31.139239805689495
rfemur -10.737942802090046 1.7574180008920357 14.223920704450885
rtibia 30.932416926852625
rfoot -0.253536643831618 -3.4242370804898976
rtoes 4.237533397586574
lfemur -0.37736802580770057 -3.670178896375069 -20.398539621758264
ltibia 22.371289281996102
lfoot -16.097647241893554 2.736550291891664
ltoes -19.744307328155323
316
root 0 0 0 -2.2886040400582077 -0.3322691864228915 0.8451895451794091
lowerback 10.178385930676466 -0.8166489568436985 -2.9589497776623146
upperback 0.32901114755228994 -1.3701068150738709 1.3143750980809448
thorax -5.304943687715538 -0.5993570958946713 3.2254949663092436
lowerneck -15.115323673419592 -2.5446791257842123 -1.7196298320328847
upperneck 17.83171785587944 -3.186007775386739 0.8648716519448467
head 8.206694928402577 -1.568844834499143 0.21384997765261143
rclavicle -1.8351226294222407E-16 -1.0030698215362308E-16
rhumerus -19.866920197654935 -7.51936315584545 -67.58977825285547
rradius 59.94286935636732
rwrist -7.859205632972267
rhand -13.434541464638025 -8.329347172545086
rfingers 7.125019999999867
rthumb 12.6977207194687 -37.57798734208141
lclavicle -7.311904773624066E-16 -3.638148335617203E-16
lhumerus -39.22909959488326 0.17437629519796102 83.25452494380006
lradius 37.86928691836694
lwrist 2.8753418994441082
lhand -19.795577773425798 1.9453776896817931
lfingers 7.125019999999884
lthumb 6.4462234212807985 31.46860028867362
rfemur -11.006956799409245 1.9350885659296113 14.971873437951533
rtibia 31.672344420381393
rfoot -0.6378306383627339 -3.61905271066969
rtoes 4.327144073318994
lfemur -1.8987804024789376 -3.3549145960926166 -19.829034318177982
ltibia 24.563259997654775
lfoot -14.884743768182146 2.0838999716923556
ltoes -18.885413577161753
317
root 0 0 0 -2.3123032759195623 -0.4017211367086768 0.7519420916093948
lowerback 10.187887431699254 -0.7907980115665525 -2.835261420979957
upperback 0.33925325410333956 -1.3214321127208346 1.3363712809151453
thorax -5.29707070516344 -0.5766762853376951 3.1725370001603714
lowerneck -15.215208953023987 -2.557319452904266 -1.7404187388624568
upperneck 17.964997477805138 -3.1959000802551056 0.8384025568735258
head 8.253969657856562 -1.5756602365630574 0.2040248689226344
rclavicle -1.8697248855833826E-16 -9.894543738000922E-17
rhumerus -19.898306353677697 -7.557392863870156 -67.62514154675355
rradius 59.827141851771955
rwrist -7.820140932388534
rhand -13.450160981487299 -8.218536719184344
rfingers 7.125019999999868
rthumb 12.682361572836687 -37.46846926827551
lclavicle -7.270748822078884E-16 -3.5937857618798833E-16
lhumerus -39.07040394953645 0.16711267143625255 83.24019385789691
lradius 37.648178287061555
lwrist 2.9440061554030015
lhand -19.963139787591558 2.456842956242232
lfingers 7.125019999999887
lthumb 6.287427688156894 31.989273364988197
rfemur -11.120030622499588 2.2080103940747833 15.88983739911948
rtibia 32.01156952670944
rfoot -1.3465176025687646 -3.8607747074677095
rtoes 4.252933152138899
lfemur -4.003098273304891 -2.9738914137495414 -18.971640480455005
ltibia 27.269717341946617
lfoot -13.422242699174529 1.390055513014989
ltoes -18.063796965160265
